{
	"asset":{
		"generator":"Khronos glTF Blender I/O v4.1.62",
		"version":"2.0"
	},
	"scene":0,
	"scenes":[
		{
			"name":"Scene",
			"nodes":[
				0
			]
		}
	],
	"nodes":[
		{
			"mesh":0,
			"name":"Arena_Edge"
		}
	],
	"meshes":[
		{
			"name":"Cube.012",
			"primitives":[
				{
					"attributes":{
						"POSITION":0,
						"NORMAL":1,
						"TEXCOORD_0":2
					},
					"indices":3
				}
			]
		}
	],
	"accessors":[
		{
			"bufferView":0,
			"componentType":5126,
			"count":1234,
			"max":[
				7.099999904632568,
				0.5,
				8.600000381469727
			],
			"min":[
				-7.099999904632568,
				-1.5,
				-8.600000381469727
			],
			"type":"VEC3"
		},
		{
			"bufferView":1,
			"componentType":5126,
			"count":1234,
			"type":"VEC3"
		},
		{
			"bufferView":2,
			"componentType":5126,
			"count":1234,
			"type":"VEC2"
		},
		{
			"bufferView":3,
			"componentType":5123,
			"count":2190,
			"type":"SCALAR"
		}
	],
	"bufferViews":[
		{
			"buffer":0,
			"byteLength":14808,
			"byteOffset":0,
			"target":34962
		},
		{
			"buffer":0,
			"byteLength":14808,
			"byteOffset":14808,
			"target":34962
		},
		{
			"buffer":0,
			"byteLength":9872,
			"byteOffset":29616,
			"target":34962
		},
		{
			"buffer":0,
			"byteLength":4380,
			"byteOffset":39488,
			"target":34963
		}
	],
	"buffers":[
		{
			"byteLength":43868,
			"uri":"AreanEdge.bin"
		}
	]
}
