{
	"asset":{
		"generator":"Khronos glTF Blender I/O v4.1.62",
		"version":"2.0"
	},
	"scene":0,
	"scenes":[
		{
			"name":"Scene",
			"nodes":[
				10
			]
		}
	],
	"nodes":[
		{
			"name":"Arm.L",
			"rotation":[
				-3.889408617396839e-07,
				-3.2487281487192377e-07,
				-0.5242905020713806,
				0.8515394926071167
			],
			"translation":[
				0.3535456657409668,
				2.374880313873291,
				1.00472547615027e-07
			]
		},
		{
			"children":[
				0
			],
			"name":"Shoulder.L",
			"rotation":[
				-2.6692537957728746e-08,
				-2.6692537957728746e-08,
				-0.7071067690849304,
				0.7071067690849304
			],
			"translation":[
				0,
				1.7999999523162842,
				0
			]
		},
		{
			"name":"Arm.R",
			"rotation":[
				-3.433191864132823e-07,
				2.6777081529871793e-07,
				0.5091670155525208,
				0.8606677055358887
			],
			"translation":[
				-0.39177656173706055,
				2.3992512226104736,
				9.648037746501359e-08
			]
		},
		{
			"children":[
				2
			],
			"name":"Shoulder.R",
			"rotation":[
				-2.6692537957728746e-08,
				2.6692537957728746e-08,
				0.7071067690849304,
				0.7071067690849304
			],
			"translation":[
				0,
				1.7999999523162842,
				0
			]
		},
		{
			"name":"Head",
			"rotation":[
				0.7254098057746887,
				3.2821591844367504e-07,
				3.459030608610192e-07,
				0.6883172392845154
			],
			"translation":[
				0,
				1.226219654083252,
				-0.49931204319000244
			]
		},
		{
			"children":[
				4
			],
			"name":"Neck",
			"translation":[
				0,
				1.7999999523162842,
				0
			]
		},
		{
			"children":[
				1,
				3,
				5
			],
			"name":"Chest",
			"translation":[
				0,
				2.6000001430511475,
				0
			]
		},
		{
			"children":[
				6
			],
			"name":"Main"
		},
		{
			"name":"neutral_bone",
			"rotation":[
				-0.7071067690849304,
				0,
				0,
				0.7071067690849304
			]
		},
		{
			"mesh":0,
			"name":"Golem.001",
			"skin":0
		},
		{
			"children":[
				9,
				7,
				8
			],
			"name":"Armature"
		}
	],
	"meshes":[
		{
			"name":"Cube.001",
			"primitives":[
				{
					"attributes":{
						"POSITION":0,
						"NORMAL":1,
						"TEXCOORD_0":2,
						"JOINTS_0":3,
						"WEIGHTS_0":4
					},
					"indices":5
				}
			]
		}
	],
	"skins":[
		{
			"inverseBindMatrices":6,
			"joints":[
				7,
				6,
				1,
				0,
				3,
				2,
				5,
				4,
				8
			],
			"name":"Armature"
		}
	],
	"accessors":[
		{
			"bufferView":0,
			"componentType":5126,
			"count":2432,
			"max":[
				3.362501621246338,
				6.276340961456299,
				1.3372011184692383
			],
			"min":[
				-3.386631727218628,
				0.6779635548591614,
				-1.329047679901123
			],
			"type":"VEC3"
		},
		{
			"bufferView":1,
			"componentType":5126,
			"count":2432,
			"type":"VEC3"
		},
		{
			"bufferView":2,
			"componentType":5126,
			"count":2432,
			"type":"VEC2"
		},
		{
			"bufferView":3,
			"componentType":5121,
			"count":2432,
			"type":"VEC4"
		},
		{
			"bufferView":4,
			"componentType":5126,
			"count":2432,
			"type":"VEC4"
		},
		{
			"bufferView":5,
			"componentType":5123,
			"count":3648,
			"type":"SCALAR"
		},
		{
			"bufferView":6,
			"componentType":5126,
			"count":9,
			"type":"MAT4"
		}
	],
	"bufferViews":[
		{
			"buffer":0,
			"byteLength":29184,
			"byteOffset":0,
			"target":34962
		},
		{
			"buffer":0,
			"byteLength":29184,
			"byteOffset":29184,
			"target":34962
		},
		{
			"buffer":0,
			"byteLength":19456,
			"byteOffset":58368,
			"target":34962
		},
		{
			"buffer":0,
			"byteLength":9728,
			"byteOffset":77824,
			"target":34962
		},
		{
			"buffer":0,
			"byteLength":38912,
			"byteOffset":87552,
			"target":34962
		},
		{
			"buffer":0,
			"byteLength":7296,
			"byteOffset":126464,
			"target":34963
		},
		{
			"buffer":0,
			"byteLength":576,
			"byteOffset":133760
		}
	],
	"buffers":[
		{
			"byteLength":134336,
			"uri":"Golem.bin"
		}
	]
}
