{
	"asset":{
		"generator":"Khronos glTF Blender I/O v4.1.62",
		"version":"2.0"
	},
	"scene":0,
	"scenes":[
		{
			"name":"Scene",
			"nodes":[
				0
			]
		}
	],
	"nodes":[
		{
			"mesh":0,
			"name":"Kobold.001"
		}
	],
	"materials":[
		{
			"doubleSided":true,
			"name":"Material",
			"pbrMetallicRoughness":{
				"baseColorFactor":[
					0.800000011920929,
					0.800000011920929,
					0.800000011920929,
					1
				],
				"metallicFactor":0,
				"roughnessFactor":0.5
			}
		}
	],
	"meshes":[
		{
			"name":"Kobold.001",
			"primitives":[
				{
					"attributes":{
						"POSITION":0,
						"NORMAL":1,
						"TEXCOORD_0":2
					},
					"indices":3,
					"material":0
				}
			]
		}
	],
	"accessors":[
		{
			"bufferView":0,
			"componentType":5126,
			"count":3255,
			"max":[
				2.4284682273864746,
				5.797369003295898,
				1.3989524841308594
			],
			"min":[
				-2.4284682273864746,
				0.002790212631225586,
				-2.237645149230957
			],
			"type":"VEC3"
		},
		{
			"bufferView":1,
			"componentType":5126,
			"count":3255,
			"type":"VEC3"
		},
		{
			"bufferView":2,
			"componentType":5126,
			"count":3255,
			"type":"VEC2"
		},
		{
			"bufferView":3,
			"componentType":5123,
			"count":5448,
			"type":"SCALAR"
		}
	],
	"bufferViews":[
		{
			"buffer":0,
			"byteLength":39060,
			"byteOffset":0,
			"target":34962
		},
		{
			"buffer":0,
			"byteLength":39060,
			"byteOffset":39060,
			"target":34962
		},
		{
			"buffer":0,
			"byteLength":26040,
			"byteOffset":78120,
			"target":34962
		},
		{
			"buffer":0,
			"byteLength":10896,
			"byteOffset":104160,
			"target":34963
		}
	],
	"buffers":[
		{
			"byteLength":115056,
			"uri":"kobold.bin"
		}
	]
}
