{
	"asset":{
		"generator":"Khronos glTF Blender I/O v4.1.62",
		"version":"2.0"
	},
	"scene":0,
	"scenes":[
		{
			"name":"Scene",
			"nodes":[
				8
			]
		}
	],
	"nodes":[
		{
			"name":"Body.004",
			"rotation":[
				0,
				0,
				0.0002583116292953491,
				1
			],
			"scale":[
				1,
				0.9999999403953552,
				1
			],
			"translation":[
				0,
				0.7999999523162842,
				0
			]
		},
		{
			"children":[
				0
			],
			"name":"Body.003",
			"rotation":[
				0,
				0,
				-0.0002583116292953491,
				1
			],
			"scale":[
				1,
				0.9999999403953552,
				1
			],
			"translation":[
				0,
				0.800000011920929,
				0
			]
		},
		{
			"children":[
				1
			],
			"name":"Body.002",
			"translation":[
				0,
				0.800000011920929,
				0
			]
		},
		{
			"name":"Wing.L",
			"rotation":[
				0.4999999403953552,
				0.5000000596046448,
				-0.5,
				0.5000000596046448
			],
			"translation":[
				0.2004132866859436,
				0.2850959897041321,
				0.3990224599838257
			]
		},
		{
			"name":"Wing.R",
			"rotation":[
				-0.5,
				0.49999988079071045,
				0.5000001192092896,
				0.4999999403953552
			],
			"translation":[
				-0.19958673417568207,
				0.28509610891342163,
				0.3990224599838257
			]
		},
		{
			"children":[
				2,
				3,
				4
			],
			"name":"Body.001",
			"rotation":[
				-0.7071067690849304,
				0,
				0,
				0.7071067690849304
			],
			"translation":[
				-0.0004132986068725586,
				1.000977635383606,
				0.28509604930877686
			]
		},
		{
			"children":[
				5
			],
			"name":"Base"
		},
		{
			"mesh":0,
			"name":"Moth.001",
			"skin":0
		},
		{
			"children":[
				7,
				6
			],
			"name":"Armature.001"
		}
	],
	"meshes":[
		{
			"name":"Cube.002",
			"primitives":[
				{
					"attributes":{
						"POSITION":0,
						"NORMAL":1,
						"TEXCOORD_0":2,
						"COLOR_0":3,
						"JOINTS_0":4,
						"WEIGHTS_0":5
					},
					"indices":6
				}
			]
		}
	],
	"skins":[
		{
			"inverseBindMatrices":7,
			"joints":[
				6,
				5,
				2,
				1,
				0,
				3,
				4
			],
			"name":"Armature.001"
		}
	],
	"accessors":[
		{
			"bufferView":0,
			"componentType":5126,
			"count":4592,
			"max":[
				2.5311591625213623,
				1.6271188259124756,
				1.2327922582626343
			],
			"min":[
				-2.5311591625213623,
				0.1400611251592636,
				-3.566406726837158
			],
			"type":"VEC3"
		},
		{
			"bufferView":1,
			"componentType":5126,
			"count":4592,
			"type":"VEC3"
		},
		{
			"bufferView":2,
			"componentType":5126,
			"count":4592,
			"type":"VEC2"
		},
		{
			"bufferView":3,
			"componentType":5126,
			"count":4592,
			"type":"VEC3"
		},
		{
			"bufferView":4,
			"componentType":5121,
			"count":4592,
			"type":"VEC4"
		},
		{
			"bufferView":5,
			"componentType":5126,
			"count":4592,
			"type":"VEC4"
		},
		{
			"bufferView":6,
			"componentType":5123,
			"count":7296,
			"type":"SCALAR"
		},
		{
			"bufferView":7,
			"componentType":5126,
			"count":7,
			"type":"MAT4"
		}
	],
	"bufferViews":[
		{
			"buffer":0,
			"byteLength":55104,
			"byteOffset":0,
			"target":34962
		},
		{
			"buffer":0,
			"byteLength":55104,
			"byteOffset":55104,
			"target":34962
		},
		{
			"buffer":0,
			"byteLength":36736,
			"byteOffset":110208,
			"target":34962
		},
		{
			"buffer":0,
			"byteLength":55104,
			"byteOffset":146944,
			"target":34962
		},
		{
			"buffer":0,
			"byteLength":18368,
			"byteOffset":202048,
			"target":34962
		},
		{
			"buffer":0,
			"byteLength":73472,
			"byteOffset":220416,
			"target":34962
		},
		{
			"buffer":0,
			"byteLength":14592,
			"byteOffset":293888,
			"target":34963
		},
		{
			"buffer":0,
			"byteLength":448,
			"byteOffset":308480
		}
	],
	"buffers":[
		{
			"byteLength":308928,
			"uri":"Moth.bin"
		}
	]
}
