{
	"asset":{
		"generator":"Khronos glTF Blender I/O v4.1.62",
		"version":"2.0"
	},
	"scene":0,
	"scenes":[
		{
			"name":"Scene",
			"nodes":[
				0
			]
		}
	],
	"nodes":[
		{
			"mesh":0,
			"name":"Rock3"
		}
	],
	"meshes":[
		{
			"name":"Cube.010",
			"primitives":[
				{
					"attributes":{
						"POSITION":0,
						"NORMAL":1,
						"TEXCOORD_0":2
					},
					"indices":3
				}
			]
		}
	],
	"accessors":[
		{
			"bufferView":0,
			"componentType":5126,
			"count":1408,
			"max":[
				1.934133768081665,
				1.1414440870285034,
				3.3455114364624023
			],
			"min":[
				-1.5827767848968506,
				-0.870929479598999,
				-2.5658445358276367
			],
			"type":"VEC3"
		},
		{
			"bufferView":1,
			"componentType":5126,
			"count":1408,
			"type":"VEC3"
		},
		{
			"bufferView":2,
			"componentType":5126,
			"count":1408,
			"type":"VEC2"
		},
		{
			"bufferView":3,
			"componentType":5123,
			"count":2112,
			"type":"SCALAR"
		}
	],
	"bufferViews":[
		{
			"buffer":0,
			"byteLength":16896,
			"byteOffset":0,
			"target":34962
		},
		{
			"buffer":0,
			"byteLength":16896,
			"byteOffset":16896,
			"target":34962
		},
		{
			"buffer":0,
			"byteLength":11264,
			"byteOffset":33792,
			"target":34962
		},
		{
			"buffer":0,
			"byteLength":4224,
			"byteOffset":45056,
			"target":34963
		}
	],
	"buffers":[
		{
			"byteLength":49280,
			"uri":"RockC.bin"
		}
	]
}
