{
	"asset":{
		"generator":"Khronos glTF Blender I/O v4.1.62",
		"version":"2.0"
	},
	"scene":0,
	"scenes":[
		{
			"name":"Scene",
			"nodes":[
				0
			]
		}
	],
	"nodes":[
		{
			"mesh":0,
			"name":"Terrain",
			"translation":[
				6,
				0,
				-9
			]
		}
	],
	"meshes":[
		{
			"name":"Grid",
			"primitives":[
				{
					"attributes":{
						"POSITION":0,
						"NORMAL":1,
						"TEXCOORD_0":2
					},
					"indices":3
				}
			]
		}
	],
	"accessors":[
		{
			"bufferView":0,
			"componentType":5126,
			"count":39938,
			"max":[
				100.37317657470703,
				0,
				106.75943756103516
			],
			"min":[
				-103.00799560546875,
				-23.625185012817383,
				-101.93293762207031
			],
			"type":"VEC3"
		},
		{
			"bufferView":1,
			"componentType":5126,
			"count":39938,
			"type":"VEC3"
		},
		{
			"bufferView":2,
			"componentType":5126,
			"count":39938,
			"type":"VEC2"
		},
		{
			"bufferView":3,
			"componentType":5123,
			"count":60000,
			"type":"SCALAR"
		}
	],
	"bufferViews":[
		{
			"buffer":0,
			"byteLength":479256,
			"byteOffset":0,
			"target":34962
		},
		{
			"buffer":0,
			"byteLength":479256,
			"byteOffset":479256,
			"target":34962
		},
		{
			"buffer":0,
			"byteLength":319504,
			"byteOffset":958512,
			"target":34962
		},
		{
			"buffer":0,
			"byteLength":120000,
			"byteOffset":1278016,
			"target":34963
		}
	],
	"buffers":[
		{
			"byteLength":1398016,
			"uri":"Terrain.bin"
		}
	]
}
