{
	"asset":{
		"generator":"Khronos glTF Blender I/O v4.1.62",
		"version":"2.0"
	},
	"scene":0,
	"scenes":[
		{
			"name":"Scene",
			"nodes":[
				0
			]
		}
	],
	"nodes":[
		{
			"mesh":0,
			"name":"Terrain",
			"translation":[
				6,
				0,
				-9
			]
		}
	],
	"meshes":[
		{
			"name":"Grid",
			"primitives":[
				{
					"attributes":{
						"POSITION":0,
						"NORMAL":1,
						"TEXCOORD_0":2
					},
					"indices":3
				}
			]
		}
	],
	"accessors":[
		{
			"bufferView":0,
			"componentType":5126,
			"count":40000,
			"max":[
				100.36576843261719,
				0,
				104.37596130371094
			],
			"min":[
				-102.39479064941406,
				-22.05992889404297,
				-101.16633605957031
			],
			"type":"VEC3"
		},
		{
			"bufferView":1,
			"componentType":5126,
			"count":40000,
			"type":"VEC3"
		},
		{
			"bufferView":2,
			"componentType":5126,
			"count":40000,
			"type":"VEC2"
		},
		{
			"bufferView":3,
			"componentType":5123,
			"count":60000,
			"type":"SCALAR"
		}
	],
	"bufferViews":[
		{
			"buffer":0,
			"byteLength":480000,
			"byteOffset":0,
			"target":34962
		},
		{
			"buffer":0,
			"byteLength":480000,
			"byteOffset":480000,
			"target":34962
		},
		{
			"buffer":0,
			"byteLength":320000,
			"byteOffset":960000,
			"target":34962
		},
		{
			"buffer":0,
			"byteLength":120000,
			"byteOffset":1280000,
			"target":34963
		}
	],
	"buffers":[
		{
			"byteLength":1400000,
			"uri":"Terrain.bin"
		}
	]
}
