{
	"asset":{
		"generator":"Khronos glTF Blender I/O v4.1.62",
		"version":"2.0"
	},
	"scene":0,
	"scenes":[
		{
			"name":"Scene",
			"nodes":[
				0
			]
		}
	],
	"nodes":[
		{
			"mesh":0,
			"name":"Tree"
		}
	],
	"meshes":[
		{
			"name":"Cylinder",
			"primitives":[
				{
					"attributes":{
						"POSITION":0,
						"NORMAL":1,
						"TEXCOORD_0":2
					},
					"indices":3
				}
			]
		}
	],
	"accessors":[
		{
			"bufferView":0,
			"componentType":5126,
			"count":656,
			"max":[
				0.6228665113449097,
				1.9046964645385742,
				0.7046315670013428
			],
			"min":[
				-0.710866391658783,
				-0.004553906619548798,
				-0.7508664131164551
			],
			"type":"VEC3"
		},
		{
			"bufferView":1,
			"componentType":5126,
			"count":656,
			"type":"VEC3"
		},
		{
			"bufferView":2,
			"componentType":5126,
			"count":656,
			"type":"VEC2"
		},
		{
			"bufferView":3,
			"componentType":5123,
			"count":996,
			"type":"SCALAR"
		}
	],
	"bufferViews":[
		{
			"buffer":0,
			"byteLength":7872,
			"byteOffset":0,
			"target":34962
		},
		{
			"buffer":0,
			"byteLength":7872,
			"byteOffset":7872,
			"target":34962
		},
		{
			"buffer":0,
			"byteLength":5248,
			"byteOffset":15744,
			"target":34962
		},
		{
			"buffer":0,
			"byteLength":1992,
			"byteOffset":20992,
			"target":34963
		}
	],
	"buffers":[
		{
			"byteLength":22984,
			"uri":"Tree.bin"
		}
	]
}
